<svg xmlns="http://www.w3.org/2000/svg" width="48" height="48" viewBox="0 0 48 48">
  <path fill="#EA4335" d="M24 9.5c3.54 0 6.07 1.53 7.47 2.8l5.45-5.45C33.27 3.36 28.92 1.5 24 1.5 14.64 1.5 6.82 7.98 3.99 16.56l6.52 5.06C12.2 14.25 17.64 9.5 24 9.5z"/>
  <path fill="#4285F4" d="M46.5 24c0-1.64-.15-3.21-.43-4.73H24v9.03h12.73c-.55 2.96-2.18 5.46-4.63 7.14l7.17 5.56C43.5 36.64 46.5 30.88 46.5 24z"/>
  <path fill="#FBBC05" d="M10.51 28.62A14.5 14.5 0 019.5 24c0-1.6.28-3.15.79-4.62l-6.52-5.06A23.99 23.99 0 000 24c0 3.87.92 7.53 2.56 10.78l7.95-6.16z"/>
  <path fill="#34A853" d="M24 46.5c6.48 0 11.9-2.14 15.87-5.83l-7.17-5.56c-2 1.34-4.57 2.13-8.7 2.13-6.36 0-11.8-4.75-13.73-11.12l-7.95 6.16C6.77 40.02 14.64 46.5 24 46.5z"/>
</svg>
